# xmcd
#
# Track frame offsets:
#	150
#	12724
#	28810
#	51420
#	67914
#	84461
#	100447
#	121818
#	133550
#	145515
#	161089
#	176456
#	188366
#	211209
#	226648
#	239982
#	254800
#	270221
#	285234
#	299432
#
# Disc length: 4175 seconds
#
# Revision: 0
# Processed by: cddbd v1.5.2PL0 Copyright (c) Steve Scherf et al.
# Submitted via: FairStars CD Ripper 1.80
#
DISCID=1e104d14
DTITLE=Various Artist - Classic Blues From Bluesville cd3
DYEAR=2014
DGENRE=Blues
TTITLE0=Brownie McGhee and Sonny Terry - That's Why I'm Walking 
TTITLE1=Alberta Hunter - Chirpin' the Blues 
TTITLE2=Lonnie Johnson and Elmer Snowden - Haunted House 
TTITLE3=Lightnin' Hopkins - Coffee Blues 
TTITLE4=Mercy Dee Walton - Have You Ever Been Out In the Country 
TTITLE5=Lucille Hegamin - St. Louis Blues 
TTITLE6=Rev. Gary Davis - Death Don't Have No Mercy 
TTITLE7=Blind Snooks Eaglin - Alberta 
TTITLE8=Sidney Maiden - Me and My Chauffeur 
TTITLE9=Sunnyland Slim - I'm Prison Bound 
TTITLE10=Memphis Willie B. - Worried Man Blues 
TTITLE11=Little Brother Montgomery - Santa Fe 
TTITLE12=Victoria Spivey - I Got Men All Over This Town 
TTITLE13=Al Smith and Eddie Davis Quartet - I've Got the Right Kind of Lovin'
TTITLE14=Pink Anderson - Baby I'm Going Away 
TTITLE15=Willie Dixon - Sittin' and Cryin' the Blues 
TTITLE16=Tampa Red - You Better Let My Gal Alone 
TTITLE17=Roosevelt Sykes - Hangover 
TTITLE18=Scrapper Blackwell - Little Boy Blue 
TTITLE19=Blind Willie Mctell - The Dyin' Crapshooter's Blues 
EXTD=
EXTT0=
EXTT1=
EXTT2=
EXTT3=
EXTT4=
EXTT5=
EXTT6=
EXTT7=
EXTT8=
EXTT9=
EXTT10=
EXTT11=
EXTT12=
EXTT13=
EXTT14=
EXTT15=
EXTT16=
EXTT17=
EXTT18=
EXTT19=
PLAYORDER=
